<?xml version="1.0" encoding="utf-8"?>
<!-- Generator: Adobe Illustrator 16.0.0, SVG Export Plug-In . SVG Version: 6.00 Build 0)  -->
<!DOCTYPE svg PUBLIC "-//W3C//DTD SVG 1.1//EN" "http://www.w3.org/Graphics/SVG/1.1/DTD/svg11.dtd">
<svg version="1.1" id="Layer_1" xmlns="http://www.w3.org/2000/svg" xmlns:xlink="http://www.w3.org/1999/xlink" x="0px" y="0px"
	 width="253.5px" height="130px" viewBox="0 0 253.5 130" enable-background="new 0 0 253.5 130" xml:space="preserve">
<g>
	<g>
		<path fill="#9BD4F4" d="M24.728,111.664c-3.325,3.858-12.897,14.365-18.081,14.365c-3.192-0.007-5.187-3.46-5.187-6.253
			c0-9.307,9.706-22.875,40.694-41.09L61.17,46.765c6.249-10.505,10.907-22.075,12.5-34.31
			c-19.948,6.783-36.573,27.531-40.427,48.011c7.576-4.655,8.646-5.319,9.043-5.319c0.665,0,1.196,0.396,1.196,1.065
			c0,1.592-5.319,6.78-6.514,8.107c-3.329,3.723-9.443,11.172-14.896,11.172c-5.053,0-5.185-6.251-5.185-9.976
			c0-9.042,5.052-21.677,9.303-29.656C40.154,9.528,66.356,0.752,75.797,0.752c4.919,0,9.577,5.587,9.577,8.511
			c0,8.51-3.591,21.942-27.53,62.237l0.266,0.267l15.427-6.78l1.726,4.254L51.724,80.413L24.728,111.664z"/>
		<path fill="#9BD4F4" d="M115.662,51.858c13.065,4.474,18.602,12.093,17.969,18.579c-2.547,26.34-49.152,26.096-68.214,24.254
			c-5.162-0.499-21.31-2.066-20.569-9.742c0.271-2.778,5.584-9.348,7.893-11.127c1.721-1.169,9.772-2.929,11.756-2.735
			c0.662,0.066,1.047,0.236,0.971,1.028c-0.128,1.322-1.519,1.858-2.491,2.298c-0.85,0.449-1.577,1.047-2.446,1.765l-0.025,0.265
			c47.086,6.302,61.379-6.076,61.583-8.196c0.658-6.749-35.495-15.595-41.743-17.271C73.829,49.279,67.15,46.49,67.921,38.55
			c0.422-4.372,3.478-13.826,5.942-17.198C78.621,14.999,103.8,4.749,132.79,7.559c5.561,0.537,11.055,1.736,16.498,3.467
			c2.976,0.96,3.276,2.055,3.02,4.702c-0.952,9.795-4.483,11.724-12.584,14.013c-5.898,1.564-7.019,2.123-12.544,5.33
			c-0.98,0.438-2.379,1.104-3.434,1.001c-1.328-0.125-2.06-0.864-1.923-2.19c0.026-0.265,2.938-4.125,10.559-8.33l-0.246-0.29
			c-34.262-2.119-50.151,8.768-50.582,11.799C81.38,38.914,79.561,39.68,115.662,51.858z"/>
	</g>
	<g>
		<path fill="#9BD4F4" d="M61.524,125.595c-0.239,0.792-0.634,1.5-1.188,2.122c-0.556,0.626-1.291,1.121-2.208,1.492
			c-0.917,0.374-2.054,0.562-3.413,0.562c-2.263,0-4.007-0.593-5.229-1.781c-1.223-1.189-1.833-2.937-1.833-5.246v-1.496h3.226v1.02
			c0,0.702,0.056,1.347,0.171,1.937c0.111,0.589,0.31,1.1,0.593,1.526c0.283,0.433,0.679,0.765,1.188,1.002
			c0.51,0.239,1.16,0.358,1.953,0.358c1.471,0,2.484-0.396,3.039-1.189c0.554-0.79,0.833-1.855,0.833-3.192v-17.726h3.227v18.2
			C61.882,123.998,61.763,124.802,61.524,125.595z"/>
		<path fill="#9BD4F4" d="M66.023,108.512v-3.529h2.885v3.529H66.023z M68.909,111.674v17.553h-2.885v-17.553H68.909z"/>
		<path fill="#9BD4F4" d="M75.6,104.982v24.244h-2.887v-24.244H75.6z"/>
		<path fill="#9BD4F4" d="M82.288,104.982v24.244h-2.886v-24.244H82.288z"/>
		<path fill="#9BD4F4" d="M107.128,108.294c-1.076-0.78-2.451-1.172-4.126-1.172c-0.679,0-1.346,0.068-2.004,0.205
			c-0.655,0.135-1.238,0.361-1.748,0.677c-0.509,0.316-0.917,0.741-1.222,1.274c-0.306,0.532-0.459,1.193-0.459,1.985
			c0,0.747,0.221,1.353,0.662,1.819c0.441,0.462,1.031,0.842,1.765,1.136c0.737,0.295,1.568,0.54,2.497,0.731
			s1.873,0.401,2.836,0.626c0.961,0.227,1.906,0.493,2.834,0.799c0.927,0.307,1.76,0.72,2.496,1.24
			c0.735,0.52,1.325,1.177,1.766,1.969c0.442,0.795,0.662,1.787,0.662,2.988c0,1.291-0.288,2.396-0.866,3.311
			c-0.578,0.917-1.319,1.663-2.225,2.242c-0.906,0.576-1.918,0.997-3.038,1.255c-1.122,0.262-2.236,0.391-3.345,0.391
			c-1.359,0-2.644-0.17-3.854-0.51c-1.212-0.338-2.274-0.852-3.192-1.544c-0.917-0.691-1.641-1.572-2.172-2.648
			c-0.532-1.075-0.798-2.348-0.798-3.821h3.056c0,1.02,0.198,1.899,0.595,2.634c0.396,0.735,0.917,1.339,1.562,1.814
			c0.646,0.474,1.398,0.827,2.259,1.056c0.859,0.225,1.742,0.339,2.649,0.339c0.724,0,1.454-0.071,2.189-0.205
			c0.735-0.134,1.397-0.367,1.987-0.698c0.586-0.325,1.063-0.774,1.425-1.342c0.361-0.563,0.544-1.288,0.544-2.171
			c0-0.837-0.222-1.517-0.663-2.037c-0.441-0.522-1.029-0.946-1.765-1.273c-0.737-0.329-1.568-0.593-2.497-0.798
			c-0.928-0.201-1.873-0.413-2.836-0.627c-0.961-0.216-1.907-0.465-2.834-0.749c-0.928-0.282-1.76-0.656-2.496-1.12
			c-0.736-0.462-1.325-1.063-1.767-1.799c-0.441-0.738-0.661-1.659-0.661-2.768c0-1.224,0.25-2.282,0.747-3.175
			c0.498-0.896,1.161-1.631,1.986-2.208c0.827-0.578,1.766-1.006,2.819-1.291c1.053-0.281,2.133-0.423,3.243-0.423
			c1.243,0,2.399,0.148,3.463,0.44c1.063,0.296,1.999,0.759,2.802,1.392c0.802,0.633,1.437,1.434,1.901,2.393
			c0.464,0.963,0.719,2.113,0.765,3.448h-3.057C108.832,110.336,108.203,109.074,107.128,108.294z"/>
		<path fill="#9BD4F4" d="M118.724,104.982v14.363l8.014-7.672h3.87l-6.96,6.384l7.469,11.169h-3.665l-6.011-9.165l-2.717,2.511
			v6.654h-2.887v-24.244H118.724z"/>
		<path fill="#9BD4F4" d="M132.036,116.849c0.36-1.118,0.905-2.09,1.629-2.918c0.725-0.826,1.62-1.478,2.685-1.954
			c1.063-0.474,2.285-0.713,3.666-0.713c1.402,0,2.631,0.239,3.686,0.713c1.05,0.477,1.94,1.128,2.664,1.954
			c0.725,0.828,1.27,1.8,1.63,2.918c0.362,1.123,0.544,2.327,0.544,3.619c0,1.287-0.182,2.491-0.544,3.6
			c-0.36,1.107-0.905,2.077-1.63,2.903c-0.724,0.827-1.614,1.47-2.664,1.936c-1.055,0.464-2.283,0.694-3.686,0.694
			c-1.381,0-2.604-0.23-3.666-0.694c-1.064-0.466-1.96-1.108-2.685-1.936c-0.724-0.826-1.269-1.796-1.629-2.903
			c-0.364-1.108-0.545-2.313-0.545-3.6C131.491,119.176,131.672,117.972,132.036,116.849z M134.973,123.305
			c0.283,0.823,0.674,1.515,1.172,2.068c0.496,0.555,1.08,0.979,1.748,1.274c0.669,0.296,1.377,0.442,2.123,0.442
			s1.454-0.146,2.123-0.442c0.668-0.295,1.251-0.72,1.747-1.274c0.499-0.554,0.89-1.245,1.172-2.068
			c0.282-0.827,0.424-1.773,0.424-2.837c0-1.063-0.142-2.009-0.424-2.836s-0.673-1.523-1.172-2.088
			c-0.496-0.566-1.079-0.995-1.747-1.291c-0.669-0.294-1.377-0.442-2.123-0.442s-1.454,0.148-2.123,0.442
			c-0.668,0.296-1.252,0.725-1.748,1.291c-0.498,0.564-0.889,1.261-1.172,2.088c-0.284,0.827-0.423,1.773-0.423,2.836
			C134.55,121.531,134.688,122.478,134.973,123.305z"/>
		<path fill="#9BD4F4" d="M154.072,104.982v9.068h0.068c0.477-0.975,1.221-1.683,2.242-2.125c1.019-0.44,2.14-0.662,3.359-0.662
			c1.361,0,2.543,0.252,3.55,0.747c1.006,0.498,1.845,1.172,2.513,2.022c0.667,0.85,1.173,1.829,1.513,2.937
			c0.338,1.109,0.507,2.286,0.507,3.531c0,1.244-0.163,2.424-0.492,3.531c-0.328,1.109-0.826,2.078-1.492,2.904
			c-0.669,0.824-1.508,1.478-2.514,1.952c-1.008,0.474-2.179,0.712-3.516,0.712c-0.428,0-0.909-0.047-1.441-0.133
			c-0.533-0.093-1.059-0.241-1.578-0.444c-0.523-0.202-1.017-0.48-1.479-0.83c-0.464-0.351-0.855-0.788-1.172-1.309h-0.068v2.342
			h-2.885v-24.244H154.072z M164.447,117.901c-0.217-0.777-0.542-1.475-0.986-2.086c-0.441-0.612-1.006-1.099-1.696-1.461
			c-0.689-0.362-1.503-0.544-2.431-0.544c-0.973,0-1.799,0.193-2.475,0.579c-0.681,0.385-1.235,0.886-1.665,1.509
			c-0.432,0.625-0.743,1.333-0.938,2.125c-0.189,0.79-0.286,1.595-0.286,2.41c0,0.862,0.102,1.691,0.306,2.496
			c0.205,0.803,0.525,1.511,0.968,2.123c0.443,0.609,1.012,1.102,1.714,1.475c0.703,0.374,1.552,0.563,2.546,0.563
			c0.997,0,1.828-0.193,2.499-0.579c0.667-0.384,1.207-0.893,1.61-1.526c0.407-0.633,0.704-1.359,0.885-2.173
			c0.18-0.816,0.272-1.654,0.272-2.515C164.771,119.482,164.662,118.682,164.447,117.901z"/>
		<path fill="#9BD4F4" d="M173.427,104.982v24.244h-2.885v-24.244H173.427z"/>
		<path fill="#9BD4F4" d="M189.49,128.108c-1.313,0.996-2.965,1.492-4.959,1.492c-1.403,0-2.622-0.226-3.65-0.678
			c-1.029-0.455-1.896-1.087-2.598-1.904c-0.701-0.813-1.226-1.784-1.579-2.917c-0.353-1.133-0.549-2.366-0.595-3.703
			c0-1.335,0.204-2.557,0.611-3.665c0.41-1.109,0.979-2.075,1.717-2.887c0.735-0.817,1.604-1.449,2.614-1.904
			c1.007-0.449,2.11-0.679,3.31-0.679c1.564,0,2.859,0.322,3.89,0.97c1.03,0.643,1.856,1.465,2.479,2.459
			c0.62,0.999,1.05,2.086,1.289,3.263c0.237,1.176,0.335,2.298,0.286,3.359h-13.138c-0.024,0.771,0.067,1.502,0.272,2.19
			c0.201,0.691,0.53,1.305,0.981,1.836c0.452,0.53,1.031,0.953,1.731,1.272c0.7,0.318,1.532,0.477,2.479,0.477
			c1.224,0,2.228-0.285,3.008-0.85c0.779-0.566,1.292-1.426,1.544-2.579h2.852C191.649,125.628,190.803,127.111,189.49,128.108z
			 M188.793,116.831c-0.261-0.607-0.61-1.135-1.053-1.577c-0.44-0.442-0.964-0.792-1.562-1.053c-0.604-0.26-1.261-0.391-1.985-0.391
			c-0.747,0-1.422,0.131-2.021,0.391c-0.601,0.261-1.116,0.618-1.547,1.07c-0.43,0.452-0.768,0.979-1.017,1.577
			c-0.251,0.602-0.398,1.24-0.441,1.922h10.084C189.209,118.089,189.053,117.445,188.793,116.831z"/>
		<path fill="#9BD4F4" d="M197.164,111.674v2.783h0.067c1.198-2.128,3.103-3.193,5.704-3.193c1.157,0,2.114,0.158,2.889,0.476
			c0.768,0.318,1.389,0.76,1.866,1.324c0.478,0.566,0.808,1.24,1.002,2.021c0.188,0.782,0.289,1.648,0.289,2.599v11.543h-2.889
			v-11.885c0-1.086-0.318-1.946-0.95-2.578c-0.633-0.636-1.507-0.953-2.616-0.953c-0.88,0-1.644,0.136-2.29,0.408
			s-1.182,0.656-1.613,1.154c-0.429,0.499-0.753,1.082-0.969,1.751c-0.214,0.666-0.321,1.397-0.321,2.19v9.912h-2.888v-17.553
			H197.164z"/>
		<path fill="#9BD4F4" d="M212.648,108.512v-3.529h2.885v3.529H212.648z M215.533,111.674v17.553h-2.885v-17.553H215.533z"/>
		<path fill="#9BD4F4" d="M229.661,114.729c-0.727-0.614-1.699-0.919-2.92-0.919c-1.043,0-1.915,0.193-2.616,0.579
			c-0.699,0.385-1.264,0.894-1.683,1.526c-0.417,0.635-0.717,1.367-0.898,2.19c-0.18,0.827-0.271,1.683-0.271,2.563
			c0,0.817,0.096,1.609,0.287,2.376c0.192,0.774,0.494,1.456,0.902,2.057c0.403,0.601,0.938,1.081,1.595,1.442
			c0.656,0.364,1.436,0.545,2.344,0.545c1.424,0,2.538-0.376,3.346-1.121c0.802-0.749,1.292-1.8,1.473-3.157h2.956
			c-0.316,2.173-1.123,3.849-2.426,5.024c-1.304,1.177-3.073,1.765-5.314,1.765c-1.337,0-2.52-0.216-3.55-0.645
			c-1.031-0.431-1.893-1.041-2.582-1.832c-0.69-0.793-1.211-1.739-1.561-2.838c-0.351-1.097-0.524-2.303-0.524-3.616
			c0-1.312,0.169-2.54,0.508-3.685c0.34-1.143,0.852-2.137,1.543-2.986c0.69-0.851,1.556-1.517,2.597-2.005
			c1.043-0.486,2.256-0.73,3.638-0.73c0.994,0,1.928,0.12,2.8,0.355c0.87,0.241,1.643,0.609,2.31,1.107s1.215,1.125,1.648,1.883
			c0.429,0.757,0.7,1.658,0.813,2.698h-2.986C230.86,116.199,230.387,115.339,229.661,114.729z"/>
		<path fill="#9BD4F4" d="M239.607,104.982v14.363l8.013-7.672h3.873l-6.96,6.384l7.468,11.169h-3.666l-6.009-9.165l-2.719,2.511
			v6.654h-2.884v-24.244H239.607z"/>
	</g>
</g>
</svg>
