<?xml version="1.0" encoding="utf-8"?>
<!-- Generator: Adobe Illustrator 16.0.0, SVG Export Plug-In . SVG Version: 6.00 Build 0)  -->
<!DOCTYPE svg PUBLIC "-//W3C//DTD SVG 1.1//EN" "http://www.w3.org/Graphics/SVG/1.1/DTD/svg11.dtd">
<svg version="1.1" id="Layer_1" xmlns="http://www.w3.org/2000/svg" xmlns:xlink="http://www.w3.org/1999/xlink" x="0px" y="0px"
	 width="78px" height="78px" viewBox="87 33 78 78" enable-background="new 87 33 78 78" xml:space="preserve">
<circle fill="#FFFFFF" cx="125.549" cy="71.684" r="32.237"/>
<path fill="#6D6E71" d="M125.958,33c-21.538,0-39,17.462-39,39c0,21.54,17.462,39,39,39c21.538,0,39-17.458,39-39
	C164.958,50.465,147.496,33,125.958,33z M141.466,64.052c0.017,0.343,0.024,0.685,0.024,1.033c0,10.571-8.051,22.764-22.766,22.764
	c-4.519,0-8.724-1.323-12.266-3.595c0.628,0.071,1.265,0.109,1.909,0.109c3.75,0,7.197-1.275,9.935-3.423
	c-3.5-0.066-6.455-2.38-7.471-5.556c0.488,0.091,0.988,0.146,1.504,0.146c0.731,0,1.438-0.101,2.105-0.281
	c-3.656-0.74-6.417-3.968-6.417-7.843c0-0.034,0-0.066,0-0.1c1.08,0.599,2.313,0.957,3.625,0.999
	c-2.147-1.433-3.559-3.885-3.559-6.659c0-1.468,0.396-2.842,1.082-4.022c3.944,4.841,9.843,8.027,16.493,8.361
	c-0.137-0.585-0.208-1.195-0.208-1.823c0-4.419,3.585-7.998,8.003-7.998c2.299,0,4.38,0.97,5.841,2.523
	c1.818-0.356,3.532-1.023,5.08-1.942c-0.6,1.871-1.866,3.436-3.516,4.426c1.616-0.19,3.161-0.625,4.594-1.258
	C144.39,61.515,143.03,62.922,141.466,64.052z"/>
</svg>
